<svg viewBox="0 0 24 24"  xmlns="http://www.w3.org/2000/svg" style="display:none">

	<symbol viewBox="0 0 40 40" id="send">
		<path d="M33.4976 8C33.7746 8 34.0037 8.05328 34.1849 8.15983C34.3767 8.26638 34.5258 8.41023 34.6324 8.59137C34.7389 8.77251 34.8189 8.96963 34.8721 9.18274C34.9254 9.42781 34.9574 9.74214 34.968 10.1257C34.9893 10.5093 35 10.9355 35 11.4044C35 15.2722 34.1689 17.9251 32.5067 19.6832C30.8444 21.4307 28.1167 22.3044 24.3234 22.3044H13.1513L9.23548 22.0807L14.6217 26.9874L18.17 30.5996C18.2978 30.7274 18.3937 30.8819 18.4576 31.0631C18.5216 31.2442 18.5535 31.4307 18.5535 31.6225C18.5535 32.0167 18.4204 32.347 18.154 32.6134C17.8876 32.8691 17.5573 32.997 17.163 32.997C16.7794 32.997 16.4172 32.8372 16.0762 32.5175L5.49547 21.9528C5.16516 21.6331 5 21.2709 5 20.8659C5 20.461 5.16516 20.1041 5.49547 19.7951L16.1082 9.18241C16.4278 8.89472 16.7794 8.75087 17.163 8.75087C17.5573 8.75087 17.8876 8.88406 18.154 9.15045C18.4204 9.40617 18.5535 9.73116 18.5535 10.1254C18.5535 10.3172 18.5216 10.5037 18.4576 10.6848C18.3937 10.8553 18.2978 11.0045 18.17 11.1323L14.6217 14.7445L9.2195 19.6832L13.1513 19.4435H24.1795C26.1401 19.4435 27.6958 19.1611 28.8466 18.5964C30.008 18.021 30.8391 17.1206 31.3399 15.8953C31.8514 14.6699 32.1071 13.2318 32.1071 11.2605C32.1071 10.8769 32.1018 10.5466 32.0911 10.2696C32.0805 9.98189 32.0751 9.69419 32.0751 9.4065C32.0751 8.99094 32.2083 8.6553 32.4747 8.39957C32.7411 8.13319 33.082 8 33.4976 8Z" fill="currentColor"/>
	</symbol>

</svg>